<?xml version="1.0" encoding="UTF-8"?>
<svg version="1.1" viewBox="0 0 1896 1100" width="1280" height="1200" xmlns="http://www.w3.org/2000/svg">
<path transform="translate(0)" d="m0 0h1896v1100h-1896z" fill="#FCFAF9"/>
<path transform="translate(1586)" d="m0 0h310v1100h-246l1-96-1-181-2-33-7-95-6-73-12-144-7-89-24-300-6-77z" fill="#FCFAF9"/>
<path transform="translate(0)" d="m0 0h425l-1 5-12 31-16 39-5 12-11 28-18 44-12 30-15 37-38 94-17 42-20 49-15 37-4 10-33 82-13 32-20 49-6 15-5 12-18 45-6 16-4 8-11 27-16 39-12 36-12 41-20 71-11 38-2 10-3 8-31 107-1 6h-17z" fill="#FCFAF9"/>
<path transform="translate(425)" d="m0 0h117l-8 21-12 30-21 52-26 65-12 29-16 40-11 27-12 30-11 27-15 37-34 85-15 36-10 25-16 39-18 45-14 34-26 64-14 34-11 28-24 58-11 29-10 32-14 50-15 52-9 31-7 21-5 16-7 26-9 35-1 2h-111l1-9 19-66 13-45 2-5 4-16 19-67 10-35 12-41 12-36 15-36 14-34 3-7 4-10 21-52 4-10 22-54 15-37 29-72 10-25 16-39 51-126 21-52 15-37 23-57 17-42 5-14 4-8 18-45z" fill="#B4C2D0"/>
<path transform="translate(1508)" d="m0 0h78l8 101 7 88 8 100 10 123 6 77 8 98 3 35 7 87 7 94 1 20 1 189-1 72-1 16h-78l1-38v-140l1-14h4v-10l-4-2-1-8v-67l-1-21-1-3-3-45-2-16-2-40-5-58-1-19-2-12-9-108-9-114-19-238-9-114z" fill="#B5C3D1"/>
<path transform="translate(1354,546)" d="m0 0h28l4 117 3 76 1 34v40l-3 1-181 6-65 3h-32l-3-72v-17h-32l-1-2-1-43-3-66-1-37v-28l2-1 78-3 40-2 84-3z" fill="#FCFAF9"/>
<path transform="translate(628,310)" d="m0 0 24 2 242 27 50 6 28 4-1 14-10 87-13 111-1 12-13-1-209-24-34-4-17-1-7-2 2-19 1-4 4 1 9 5 7 2 5 2h7l16-4v-2l4-1h13l5-1-7-10-2-7v-13l2-9 2-5-4-2-12-2-3 1v-2l-2 1 6 7 2 5v3l-7-1-3-6-5-4h-11l-7 6-2 8v13l3 8 4 4 2 1h10l6-4 4-7 5-1 1 5-5 8-8 5-3 1h-10l-9-4-6-9-2-5v-16l2-8 1-3h-2v-2l-11-3-4 1-2-1 6 8 1 6h-6l-5-8-4-3h-11l-7 6-2 10v9l2 9 5 5 4 1h7l6-3 5-8h6l-1 7-6 7-10 4h-9l-9-4-5-6-3-9v-17l3-9-4-2-7-2h-3l1 7v11l-6 7-4 2v2l3 3 8 14 1 3h-8l-3-3-8-16-13-1v20h-8v-54h26l6 1-1-5 2-26 5-42h2v-9z" fill="#E7E9EC"/>
<path transform="translate(459,858)" d="m0 0 30 2 76 7 69 7 58 6 7 1-1 18-7 73-9 86-28-2-33-3-3 27-1 2h-11l-44-5-27-2-16-2-16-1-6-3-9-8-14-8-13-5-16-4-2-2 2-16 10-114 2-20 1-25z" fill="#E7E9EC"/>
<path transform="translate(645,596)" d="m0 0 44 5 124 15 46 6 11 1-1 17-8 66-9 69-1 9v15h-15l-35-1-2 14h-6l-1-1-39-5-83-10-49-6 1-11 15-128 6-50z" fill="#E8EAED"/>
<path transform="translate(749)" d="m0 0h204v18l-1 42-5 120h-17l-61-3-127-5v-12z" fill="#FCFAF9"/>
<path transform="translate(1301,354)" d="m0 0h26l1 1 1 8 1 29 1 61 1 38v16l-226 9-40 2h-12l-1-17-2-74 2-1 21-1 1-1 95-4h14l1-61 1-1 86-3z" fill="#E7E9EC"/>
<path transform="translate(0,84)" d="m0 0 10 3 25 11 53 23 25 11 27 12 9 3-3 9-15 35-19 45-20 47-19 45-17 40-16 38-15 35-14 32-10 21h-1z" fill="#E8EAED"/>
<path transform="translate(1173,117)" d="m0 0h11l84 7 71 7-3 52-3 38-6 66-1 24-21-1-76-6-66-6-4-1 3-40 7-81 3-58z" fill="#E7E9EC"/>
<path transform="translate(1054,61)" d="m0 0h14l58 4 41 4v15l-4 61-3 32-1 25-2 24-2 36-1 5-26-2-86-6-4-1 3-39 6-76z" fill="#E7E9EC"/>
<path transform="translate(739,907)" d="m0 0 15 1 75 10 19 3-1 14-7 58-12 91-2 16h-110l2-23 14-116z" fill="#E7E9EC"/>
<path transform="translate(1809,324)" d="m0 0 2 1 1 21 1 6 3 69 1 5 1 18 2 53 1 4 3 78-1 1-62 7-18 2-1-11-5-106-2-67-2-50v-23l21-3 31-3z" fill="#E7E9EC"/>
<path transform="translate(1874,189)" d="m0 0h2l8 31 11 37h1v14l-56 17-99 29h-4l-5-17-7-24-7-26-4-13 9-3 142-42z" fill="#E8EAED"/>
<path transform="translate(1790 1e3)" d="m0 0h14l32 1 54 1 6 1v94h-147v-17l2-61 1-18z" fill="#E7E9EC"/>
<path transform="translate(1502,364)" d="m0 0h16l1 13 2 65 3 72v12l-10 1-71 1-1-1-1-33v-63l-1-64 8-1z" fill="#E7E9EC"/>
<path transform="translate(466,424)" d="m0 0h12l16 4 10 5 8 6 8 8 8 14 4 16v13l-3 15-7 13-9 10-8 7-12 6-16 3h-12l-12-2-12-6-10-8-8-9-6-10-4-14-1-6v-10l4-17 6-12 11-12 10-7 10-4z" fill="#EF4C42"/>
<path transform="translate(476,292)" d="m0 0 18 1 44 5 34 4 2 1-1 17-7 61-2 19-1 1h-9l-36-4-16-1-6-2h-25l-5-2-2-6 4-31 6-52 1-10z" fill="#E7E9EC"/>
<path transform="translate(1359,1016)" d="m0 0h38v84h-118v-82l8-1z" fill="#E7E9EC"/>
<path transform="translate(566,223)" d="m0 0 14 1 81 10 28 4-2 22-4 40-24-1-35-4-48-6-15-1-4-2 2-17 4-29h2v-9z" fill="#E8EAED"/>
<path transform="translate(213,578)" d="m0 0h8l16 6 10 5 24 10 7 4 2 3v7l-5 15-5 10-6 8-4 3-4 1v4h2l2 3-1 8-9 23-6 8-4 3-3 1h-8l-8-4-10-11-2 1v12l9 7 14 7 5 4-1 8-4 8-5 2-10-1-16-6-18-7-4-4v-8l5-12 7-13 7 1-2-5-1-8 3-11 5-9 8-7 8-3h4l-7-15v-11l5-10h-6l-6-4-3-5v-8l5-9z" fill="#647B9B"/>
<path transform="translate(1109)" d="m0 0h182l-1 28-1 18-21-1-76-6-82-7-3-1 1-22z" fill="#E8EAED"/>
<path transform="translate(153,811)" d="m0 0 13 1 10 4 10 9 4 11v10l-4 12-9 10-8 4-5 1 5 8 3 9v13l-4 11-3 5-5 5-7 4-5 2h-15l-12-3-15-8-7-7-4-10v-16l4-10 9-10 10-5h10l7 6 1 7-3 7-5 4-8 2v11l5 2 7 3 11 1 5-1v-7l-5-9v-9l4-5 4-2-12-8-6-8-2-5v-18l4-8 6-7 8-5z" fill="#617998"/>
<path transform="translate(905,262)" d="m0 0 25 2 69 8 5 1-1 15-5 48h-8l-81-10-10-1 1-14 5-47z" fill="#E8EAED"/>
<path transform="translate(1589,986)" d="m0 0h10l4 5v2l9-5 4-1h11l9 6 4 6 2 7v13l-6 12-8 8 4 3 9 6 1 2v9l-5 6-12 7h-8l-5-5-4-2-11 2-8 4h-8l-5-6-1-9 3-6 5-5 17-3 12-2 2-7-6 2-5 4-6 1-7-1-7-4-8-11-2-6v-11l3-8 6-8 5-4z" fill="#798BA4"/>
<path transform="translate(1595,610)" d="m0 0h24l4 3 1 5v15l-11 8-7 4 3 3 15 6 3 3 1 19-5 4-19 3-34 2-6-4-2-6-3-37-1-21h3v-2l7-2z" fill="#637A99"/>
<path transform="translate(274,444)" d="m0 0h13l5 3 3 4v6l-1 2 9-4h8l12 3 7 6 4 11v8l-3 10-5 9-8 8-9 4-8 1-6-3-3-3-1-10-12 4-9-1-8-3-7-8-2-6v-15l5-12 8-9h2v-2z" fill="#617999"/>
<path transform="translate(1477,54)" d="m0 0h17l3 51-2 1-77 3-1-52 7-1z" fill="#E8EAED"/>
<path transform="translate(431,1057)" d="m0 0h25l10 3 7 3v2l4 1 4 2 5 5 8 9 7 12 2 6h-116l2-9 6-10 9-10 8-6 13-6z" fill="#7A8BA5"/>
<path transform="translate(1743,802)" d="m0 0h11l1 4 1 15 1 31 1 8-13 2-35 4-1 1h-11l-5-60 1-1 20-1z" fill="#E7E9EC"/>
<path transform="translate(1571,785)" d="m0 0h1l2 11 4 2 7 5 10 2-3 2-10 5-5 8-1 3v12l5 10 3 2-4-13v-10l6-9 7-4 12-1 9 2 2 1v2l4 2 5 9v8l-2 6h4l-4 8h-2v5l8 7v10l-2 2-2-1-35 1v14h34v9l-1 1h-43v-12l1 2h2l-4-7v-9l4-7 7-3-6-1-4 4-5 1-1 7h-1v-50l-1-21-1-3z" fill="#7B8DA6"/>
<path transform="translate(542,455)" d="m0 0 2 3 3 9 1 6 2 44 2 51-2 1-34 3-14 3-8 4h-2v2l-5 3-7 2h-7v2h-2l1 9h-1v15h-1l-1 14h-2v-11l2-36-4-1-15-8-10-9-6-5-7-8-9-9-9-11-6-4-3-1v-2l5-1-4-9-3-9-1-7v-16h1l2 18 6 18 5 8 11 13 15 16 12 12 11 8 6 2h12l9-4 11-9 14-14 7-8 10-11 10-15 3-7 1-5v-32l-2-11z" fill="#E6E9EC"/>
<path transform="translate(1600,759)" d="m0 0h14l8 6 3 4 2 6v14l-3 6-4 4-9 3-2 3 8 3 8 6 4 6 1 6v8l-2 6h-5l1-6v-8l-5-9-3-2v-2l-11-2-12 1-8 5-4 7v10l4 14-4-2-5-8-1-3v-12l4-8 5-5 9-5-10-2-9-7-2-5-1-6v-10l4-8 5-5 5-2z" fill="#5F7593"/>
<path transform="translate(0,810)" d="m0 0 9 2 48 16 1 3-12 36-3 10-6-1-37-13z" fill="#E8EAED"/>
<path transform="translate(1584,858)" d="m0 0 8 1-2 2-7 2-2 5-1 2v9l3 4v3h-2l-1 10 43-1 1-9h-34l-1-2v-12l1-1h35v-8h1l1 10-2 1v9l4 2v11l-3 2v9l3 2v22l-1 2-9 3h-7l-5-8-6-1-20-1-2-5-5-1v-12h4v-10l-4-2-1-8v-17l2-7 6-3z" fill="#788AA4"/>
<path transform="translate(1617,693)" d="m0 0h2l1 9h10l2-6h1v7l-2 3-6 2-12 1 1 4 7 8 2 6v14l-3 6-4 4-9 3-14 2h-12l-6-4-6-6-2-9v-11l6-10 1-5-2-2 1-4 11-1 33-1z" fill="#7B8DA6"/>
<path transform="translate(1381,543)" d="m0 0h3l2 72 2 40 3 91 2 66v3l-49 2-237 9-1-2v-21l-2-68-32 1-1-1-1-37-3-67-2-75 8-1 145-6 142-5zm-27 3-82 3-84 3-64 3-54 2-2 1v28l2 61 2 42 1 44 1 1h32v17l3 72h32l93-4 153-5 3-1v-40l-3-90-3-77-2-60z" fill="#B8BABE"/>
<path transform="translate(214,583)" d="m0 0 11 2 16 7 10 5 18 7 6 5-1 7h-2v3l-4 1v11l-5 8-6 4h-14l-12-5-4-4v-2h-2l-3-6-1-9 3-7 5-5v-3l-5-2-13-3-1-1 1-9z" fill="#F6F6F6"/>
<path transform="translate(1595,616)" d="m0 0h24l1 1 1 11-4 4-16 8-11 4h-2v2h-2v3l5 1 31 9 2 3v12l-6 2-36 3h-13l-1-2v-7l4-2 34-2v-2l-10-3-23-7-6-2v-5l2-3 16-7 8-4 7-3 3-1v-2l-23 2h-10v2l-5-1-1-1-1-9 1-1z" fill="#F3F3F4"/>
<path transform="translate(279,449)" d="m0 0 9 1 2 4-4 7-11 4-1 3h-2v12l2 2h5l10-9 1-2h2v-2l9-6 5-2h10l6 3 5 7 1 3v13l-3 7-3 3-3 5-2 2h-3v2l-7 3h-9l-2-1 1-8 2-4 10-3 5-6 1-9v-3h-9l-4 1v2h-2l-2 4-3 1-1 4-7 5-3 3-6 2h-6l-6-3-4-5v-2h-2l-1-3v-14l6-12 7-6z" fill="#F4F4F5"/>
<path transform="translate(157,817)" d="m0 0 10 1 7 3 6 5 4 9v14l-3 7h-2l-1 4-5 4-5 2h-10l-9-3-8-6-1-4h-2l-2-6v-11l5-10 7-6z" fill="#F4F4F5"/>
<path transform="translate(262,539)" d="m0 0h13l10 5 6 7 2 5v15l-7 10-5 5-2 1h-15l-12-6-4-5-3-8v-10l5-10 8-7z" fill="#F4F4F5"/>
<path transform="translate(183,734)" d="m0 0h12l7 2 6 4 1 3 4 4 2 5v11l-5 10-8 6-7 2h-7l-10-3-7-5v-3h-2l-3-7v-12l3-7 7-7z" fill="#F3F3F4"/>
<path transform="translate(119,867)" d="m0 0h10l2 1v7l-4 5-9 3-4 1-1 13 3 5v2l5 1v2l7 1 8 2h10l6-2 1-5 1-2v-7l-4-6-2-2v-7l2-4 7 1 5 4 4 7 1 5v11l-3 8h-2v3h-2l-1 4-10 6-4 1h-12l-12-3-1-3-9-3-8-8-3-4v-19l5-9h2l1-3 8-5z" fill="#F3F3F3"/>
<path transform="translate(628,310)" d="m0 0 24 2 242 27 50 6 28 4-1 14-10 87-13 111-1 12-13-1-209-24-50-6-6-1 1-2 145 16 49 6 46 5 31 4 4 1v-10l5-44 4-33 8-68 6-52 1-13-66-8-241-27-25-3h-7l-4 36-7 60-1 6h-1v-9z" fill="#B5C1CE"/>
<path transform="translate(215,648)" d="m0 0h10l19 7 11 3 1 3-5 10-3 8-4 9-3 4h-3v2l-3 1h-7l-6-4-2-3v-16l3-11-8 1v2h-2l-1 12-3 8-4-1-3-3-1-12 3-10 8-8z" fill="#F3F3F4"/>
<path transform="translate(579,469)" d="m0 0h26l8 4 4 8v11l-6 7-4 2v2l3 3 8 14 1 3h-8l-3-3-8-16-13-1v20h-8z" fill="#404E64"/>
<path transform="translate(1610,937)" d="m0 0h8l11 2 3-1 7 2 4 4v13l-5 4-5 1h-52l-2-5-5-1v-12l7-4h18l9-2z" fill="#677D9C"/>
<path transform="translate(645,596)" d="m0 0 44 5 124 15 46 6 11 1-1 17-8 66-9 69-2 23h-5l2-2 4-37 7-51 6-48 3-28v-6l-61-8-157-19h-3l-6 49-8 69-5 45-3 23-1 3 31 3 115 14 29 4v2l-13-1-115-14-49-6 1-11 15-128 6-50z" fill="#B5C2CF"/>
<path transform="translate(466,448)" d="m0 0h13l1 1v16h14l2 2v10l-1 1-14 1-1 40-1 1h-12l-1-1-1-40-16-1-1-1v-11l6-1h11v-16z" fill="#FBF9F8"/>
<path transform="translate(1599,810)" d="m0 0 12 1 5 2v2l4 2 5 9v8l-5 10h-2v2h-3v2l-5 2h-16v-2l-5-1-8-10-1-3v-10l6-9 7-4z" fill="#F5F5F5"/>
<path transform="translate(1591,991)" d="m0 0h6v8l-7 9v13h9l4-11h2l2-9 6-7 5-2 9 1v2l4 1v2h2l4 10v9l-3 8h-2v3l-8 6-5-1-1-6 2-5 4-1 1-4v-12h-6l-3 1-3 11-4 8-6 7-6 3-8-1-7-7-3-8v-11l3-8 6-7z" fill="#F4F4F5"/>
<path transform="translate(1589,986)" d="m0 0h10l4 5v2l9-5 4-1h11l9 6 4 6 2 7v13l-6 12-4 4-7 1 2-5 3-3h2v-3h2l2-8v-9l-3-10h-2l-1-2-3-1v-2h-9l-6 3-4 5-3 9h-2l-2 9-2 3h-7l-3-3v-11l7-9 1-8-7 2-5 4-4 7-1 4v11l3 8 6 6 8 1 7-4h4v3l-6 5-5 2-7-1-7-4-8-11-2-6v-11l3-8 6-8 5-4z" fill="#627A9A"/>
<path transform="translate(118,861)" d="m0 0h10l7 6 1 7-3 7-5 4-8 2-3 10h-3-2l1-11 3-3 6-3 6-2 2-3 1-7h-12l-8 4-4 4h-2l-2 5-2 4v19l10 11 9 4 1 2 12 3h12l10-4 4-3 1-3h2v-3h2l2-8v-11l-3-9-3-5h4l5 3 3 9v13l-4 11-3 5-5 5-7 4-5 2h-15l-12-3-15-8-7-7-4-10v-16l4-10 9-10z" fill="#47556C"/>
<path transform="translate(749)" d="m0 0h2v28l-3 78-3 63 9 1 58 2 112 5h20l4-99 2-53 1-25h2v18l-1 42-5 120h-17l-61-3-127-5v-12z" fill="#B8B9BD"/>
<path transform="translate(1606,763)" d="m0 0 7 1 3 2v2l3 1 3 6v11l-3 8-6 3-4-1-1-1 1-7h2v-2h2l-1-10h-5l-1 8-3 8-6 5h-2v2h-8l-5-3-5-9v-12l4-7 5-4h6v8l-2 5v5l1-2 3-1 4-11 4-4z" fill="#F4F4F4"/>
<path transform="translate(1609,686)" d="m0 0h22l3 4v14l-2 1v-4l-2 2h-10l-1-1v-9h-2v10l-3 1-30 1-10 1-1 3-4-1-2-2-1-5v-7l5-1 1-4z" fill="#657C9B"/>
<path transform="translate(1173,117)" d="m0 0h11l84 7 71 7-3 52-3 38-6 66-1 24-21-1-76-6-66-6-4-1 3-40 9-104h1v15l-5 64-1 7-3 41-2 16h12l65 6 85 7 1-18 8-88 5-70-15-1-83-8-62-5-3-1v11h-1z" fill="#B5C2D0"/>
<path transform="translate(305,412)" d="m0 0 5 1 5 6-3 4 5 2 14 6 5 1 2-5 4-1 6 3v7l-5 9-5 2-9-1-20-8-4-1-2 5-6-2-1-1v-8l-6-1-3-2 1-7 4-6 5 1 2 2 4 1 1-6z" fill="#F4F4F4"/>
<path transform="translate(749,475)" d="m0 0h10l6 4 3 4v2l4 2 2 2 1 8h-21l1 4 12 1v11l-6 4h-11l-5-3-5-6-2-9 1-12 3-7 5-4z" fill="#F7F6F6"/>
<path transform="translate(1583,716)" d="m0 0 5 1v7l-4 9v5l4-1 3-9 4-9 4-3h9l6 4 4 7 1 8-3 8-4 5-5 1-3-2 1-7 2-3v-11l-5 2-4 18-6 5h-10l-2-1v-2l-3-1-3-7-1-9 2-8 5-5z" fill="#F1F1F3"/>
<path transform="translate(132,776)" d="m0 0 6 1 6 2 10 3 6 3 9 4 7 2 5 2v2l9 1 8 4-1 8-3 4-8-2-16-5-8-3-13-4-10-4-1-2-10-4 1-7z" fill="#F5F5F5"/>
<path transform="translate(1054,61)" d="m0 0h14l58 4 41 4v15l-4 61-5 55h-1v-13l4-49 3-46 1-21-90-7-19-1-1 24-3 35-6 71-3 40-2 23 83 6 21 2 7 1 1-4 1 6-26-2-86-6-4-1 3-39 6-76z" fill="#B5C2D0"/>
<path transform="translate(1587,861)" d="m0 0h38v10l-35 1v14h34v9l-1 1h-43v-12l1 2h2l-4-7v-9l4-7z" fill="#F6F6F6"/>
<path transform="translate(261,533)" d="m0 0h14l9 4 8 6 6 9 1 3v14l-4 10-7 9-4 3-5 2h-13l-10-4-9-6-5-6-3-8v-11l3-9 11-12zm1 6-8 5-6 7-3 7v10l4 10 6 5 9 4h15l4-2 8-11 2-3v-15l-4-8-7-6-7-3z" fill="#607898"/>
<path transform="translate(303,407)" d="m0 0 9 1 6 5 6 8 2 2h6l5-2h7l7 4 2 2v8l-4 9-5 6-5 2-12-1-16-5-10 1-8-5-6-8-4-4v-8l4-9 4-3 8 1zm2 5-2 3v4l-5-2-3-2-4 1-4 7v5l6 3h3v8l5 3 3-1 1-4 16 6 11 4 9-1 4-4 3-6v-7l-6-3-5 2-1 4-10-3-12-6h-2l3-4-5-6z" fill="#617898"/>
<path transform="translate(258,471)" d="m0 0h1l1 16h2l5 7 5 2 9-1 5-1 1-3 7-5 1-3 5-5h2v-2l4-2h7l2 1 1 9-3 6-6 5-8 1-3 12h11l7-2v-2l5-3 3-5h2l1-2 1 3h2l-2 5-8 8-9 4-8 1-6-3-3-3-1-10-12 4-9-1-8-3-7-8-2-6v-6l2-2 1-4h2z" fill="#627A9A"/>
<path transform="translate(0,84)" d="m0 0 10 3 25 11 53 23 25 11 27 12 9 3-3 9-15 35-19 45-20 47-19 45-17 40-16 38-15 35-14 32-10 21-1-4 12-26 21-49 13-30 19-45 11-26 18-43 13-30 11-26 15-35 12-29 1-3-8-2-36-16-41-18-58-25-3-1z" fill="#B6C0CB"/>
<path transform="translate(131,771)" d="m0 0h9l17 6 14 6 24 9 4 2 3 5v7l-5 8-3 2-9 1-7-3-18-7-12-4-20-9-5-4 1-6 4-9zm1 5-4 7v5l10 4 3 3 14 5 14 4 6 3 17 5 4-2 2-5v-5l-11-5h-6v-2l-5-2-7-2-3-2-6-2-11-5-9-2-4-2z" fill="#637A99"/>
<path transform="translate(1593,627)" d="m0 0h10v2l-6 4-10 4-15 7h-3l-1 8 25 7 13 5v2l-4 1-30 2-4 1-1-2-3-1-1 8h-1l-3-37v-8l1 2h5l1-2 4 1v-2z" fill="#788AA4"/>
<path transform="translate(397,479)" d="m0 0h1l2 18 6 18 5 8 11 13 15 16 12 12 11 8 6 2h12l9-4 11-9 14-14 7-8 10-11 14-21 1 4-6 12-6 9-1 3h-2l-2 5-8 10-8 7-3 1-1 3-5 5h-2v3h6v2l-18 4-4 3-9 2-3 5-2 2-1-8-4-1-15-8-10-9-6-5-7-8-9-9-9-11-6-4-3-1v-2l5-1-4-9-3-9-1-7z" fill="#B7BBC1"/>
<path transform="translate(739,907)" d="m0 0 15 1 75 10 19 3-1 14-7 58-12 91-2 11h-1v-12l7-51 3-25 2-12 5-42 3-31-16-1-83-11-5-1-1 13-10 79-10 87-1 11-3 1 2-23 14-116z" fill="#B5C3D1"/>
<path transform="translate(181,728)" d="m0 0h13l12 4 10 8 4 6 1 5v9l-4 11-4 6h-2l-2 4-10 5-9 1-10-2-6-2 1-2-6-4-5-6-3-6-1-4 1-13 5-9 7-7zm2 6-8 4-8 9-1 4v12l3 7h2l1 4 6 4 10 3h7l9-3 6-5 5-10v-11l-4-8-2-1-1-3-8-5-5-1z" fill="#485770"/>
<path transform="translate(751,468)" d="m0 0 9 1 7 4 5 6 2 7-6-1-5-7-4-2h-10l-6 4-3 7-1 12 2 9 6 7 3 1h11l5-3 1-11h-12l-1-5 6-1h12l2 1v16l-3 5-4 3-6 2h-12l-7-3-6-5-4-8-1-4v-13l2-9 6-8 7-4z" fill="#404D64"/>
<path transform="translate(1874,189)" d="m0 0h2l8 31 11 37h1v7l-2-3-8-24-7-25-4-16v-4l-115 34-41 12h-2l5 15 4 15 7 25 5 15v7l50-15 58-17 43-13 7-1v2l-56 17-99 29h-4l-5-17-7-24-7-26-4-13 9-3 142-42z" fill="#B5C3D1"/>
<path transform="translate(1621,1041)" d="m0 0h2v2h2l1 5h8l4 3 1 4-2 5-4 3h-5l-3 5-7 1-3-5v-3h-21l-7 6h-5l-2-3 1-9 3-5 3-2 29-1 3-5z" fill="#EFF0F1"/>
<path transform="translate(460,858)" d="m0 0 29 2 76 7 69 7 58 6 7 1-1 18-7 73-9 86-28-2-35-3-1 9h-1v-11h15l48 4 2-26 8-74 7-72-21-2-117-12-99-9z" fill="#B5C2CF"/>
<path transform="translate(193,687)" d="m0 0 5 2 5 4 1 13 8 4 17 6 3 2-1 8-3 5-14-6-14-5-15-5-2-2 1-6 3-5h6v-2l-4-1 3-11z" fill="#EFF0F2"/>
<path transform="translate(646,468)" d="m0 0 10 1 8 5 5 7 1 6h-6l-5-8-4-3h-11l-7 6-2 10v9l2 9 5 5 4 1h7l6-3 5-8h6l-1 7-6 7-10 4h-9l-9-4-5-6-3-9v-17l4-9 4-5 7-4z" fill="#414F65"/>
<path transform="translate(698,468)" d="m0 0 10 1 8 5 4 5 2 5v3l-7-1-3-6-5-4h-11l-7 6-2 8v13l3 8 4 4 2 1h10l6-4 4-7 5-1 1 5-5 8-8 5-3 1h-10l-9-4-6-9-2-5v-16l2-8 5-7 8-5z" fill="#414E65"/>
<path transform="translate(0,294)" d="m0 0 9 2 23 10 1 5-6 18-5-1-19-9-3-1z" fill="#FAF9F8"/>
<path transform="translate(1096,554)" d="m0 0h21l2 2-51 2 3 89 2 42 1 44h32l1 2v16l2 53-3-1-2-68-32 1-1-1-1-37-3-67-2-75 8-1z" fill="#B8B9BD"/>
<path transform="translate(1329,420)" d="m0 0h1l2 71v16l-226 9-40 2h-12l-1-17-2-74 2-1 21-1h21v1l-34 2h-8l1 18 1 41v29l56-3 81-3 60-2 73-3h5l-1-39z" fill="#B5C2D0"/>
<path transform="translate(566,223)" d="m0 0 14 1 81 10 28 4-2 22-4 40h-8l-105-13-12-2 2-9h1v6l7 2 38 4 75 10 3-35 1-8v-15l-46-6-67-8-3-1-5 36-2 10h-1l1-15z" fill="#B5C3D1"/>
<path transform="translate(442,1081)" d="m0 0 6 1 18 10 10 7v1h-64l2-3h2v-2l5-1v-2l5-1v-2l9-3v-2z" fill="#FBF9F9"/>
<path transform="translate(1595,610)" d="m0 0h24l4 3 1 5v15l-9 7-9 3-12 3-3 1 1-4 18-8 9-5 1-3-1-10h-24l-31 3 1 12h-5l-1-2-1-13h3v-2l7-2z" fill="#627A9A"/>
<path transform="translate(905,262)" d="m0 0 25 2 69 8 5 1-1 15-5 48h-8l-81-10-10-1 1-14 5-47zm2 2-4 39-2 13v7l67 8 22 3h6l1-1 5-53v-5l-1-1-89-10z" fill="#B5C3D1"/>
<path transform="translate(1587,908)" d="m0 0 37 1 1 1v6l-4 4-1 4h3l2 6-1 1h-12l-1-2-1-9-31-1v-10z" fill="#F6F5F5"/>
<path transform="translate(256,659)" d="m0 0h3l-1 9-8 20-6 8-4 3-3 1h-8l-8-4-10-11-2-1 4-20h2v-2l2-1h6l-1 8-1 3v16l5 5 2 1h10v-2l4-2 4-8 3-10 4-6z" fill="#5D7595"/>
<path transform="translate(394,521)" d="m0 0h6v2l5 1 6 5 9 11 14 14v2l4 2v2l4 2 11 9 16 8v5l-4 1-7-3-12-6-20-20v-2l-4-2v-3l-4-2-6-7v-2h-2l-3-4v-3l-4-2-5-5h-3z" fill="#F6F5F6"/>
<path transform="translate(160,878)" d="m0 0h4l5 3 3 9v13l-4 11-3 5-5 5-7 4-5 2h-15l-12-3-15-8-7-7 1-2 7 6-6-7 6 2 4 4 9 4 1 2 12 3h12l10-4 4-3 1-3h2v-3h2l2-8v-11l-3-9z" fill="#4C5C75"/>
<path transform="translate(1689)" d="m0 0h53l-4 3-20 8-20 7-5 1-1-1-3-15z" fill="#FAF9F8"/>
<path transform="translate(1627,1042)" d="m0 0 7 1 7 5 1 2v9l-5 6-12 7h-8l-5-5-4-2-11 2-8 4h-8l-5-6-1-9 3-6 5-5h5v3l-5 5-2 5v6l1 2h7l2-4 3-2h21l3 8 7-1 3-5h5l4-3 1-5-2-4-10-2z" fill="#637B9A"/>
<path transform="translate(1585,944)" d="m0 0h39l1 1v11h-46v-11z" fill="#F3F2F3"/>
<path transform="translate(1625,863)" d="m0 0h1l1 10-2 1-1 9h-2l1 3h-33l-1-2v-12l1-1h35z" fill="#7C8EA6"/>
<path transform="translate(1617,693)" d="m0 0h2l1 9h10l2-6h1v7l-2 3-6 2-12 1 1 4 7 8 2 6v14l-3 6-4 4h-5v-3l2-3h2l3-10-1-8-3-5v-2l-5-2-1-1h-15l-1-3 7-1v-2l4-2-9-1-4-3 5-1 22-1z" fill="#5D7493"/>
<path transform="translate(1602,805)" d="m0 0 11 1 9 5 6 7 2 8v8l-2 6h-5l1-6v-8l-5-9-3-2v-2l-11-2-12 1-8 5-4 7v10l4 14-4-2-5-8-1-3v-12l4-8 5-5 8-4z" fill="#617898"/>
<path transform="translate(191,683)" d="m0 0 5 2 2 4-5-1-3 11 3 1v2l-6 1-3 7 1 4 15 5 17 6 11 5 5-11h3l-1 8-3 5-5 2-10-1-16-6-18-7-4-4v-8l5-12z" fill="#607796"/>
<path transform="translate(1597,692)" d="m0 0h19l1 11-3 1-41 1-1-1v-9l1-1z" fill="#EFF0F1"/>
<path transform="translate(1571,785)" d="m0 0h1l2 11 4 2 7 5 10 2-3 2-10 5-5 8-1 3v12l5 10 7 7-1 4-5 3-5 5h-2l-1 7h-1v-50l-1-21-1-3z" fill="#B5C3D1"/>
<path transform="translate(457,410)" d="m0 0h17l4 2-19 1-13 3-10 4-11 7-9 9-8 11-5 11-3 13-1 21-1 3 2 10 4 13-1 2h-6l-2-8-1-2v-8l1-9v-11l2-15 5-16 8-14 9-10 10-7 13-6z" fill="#E8EAED"/>
<path transform="translate(213,578)" d="m0 0h8l16 6 10 5 24 10 7 4 2 3v7l-3 10h-2l-2-3 1-11-7-5-16-6-10-5-9-4-10-4-9-1z" fill="#617999"/>
<path transform="translate(1109)" d="m0 0h1v29l74 6 32 3 72 6v-23l1-20 2-1-1 28-1 18-21-1-76-6-82-7-3-1 1-22z" fill="#B5C2D0"/>
<path transform="translate(262,552)" d="m0 0h11l7 5 2 3v9l-6 5h-9l-7-3-3-5v-9h2l1-3h2z" fill="#667D9C"/>
<path transform="translate(587,475)" d="m0 0h16l5 3 2 5v7l-4 5-2 1h-17z" fill="#F6F5F5"/>
<path transform="translate(1593,627)" d="m0 0h10v2l-6 4-10 4-15 7h-3l-1 3-7-3v8h-1l-1-22 1 2h5l1-2 4 1v-2z" fill="#7E8FA8"/>
<path transform="translate(154,831)" d="m0 0h10l5 3 3 4 1 7-3 5-5 3h-7l-5-2-4-5-1-2v-8l4-4z" fill="#607999"/>
<path transform="translate(196,666)" d="m0 0h1l1 11 2-3h2l2 7 2 2 4 2-1 1v12l9 7 14 7 5 4v5l-1-2h-3l-1 3-1-4-15-6-7-3-6-3-1-13-5-5-1-3-2-1h4l-2-5-1-8z" fill="#627A99"/>
<path transform="translate(186,746)" d="m0 0 9 1 7 5 1 2v7l-5 6-9 1-7-2-4-6v-8l3-5z" fill="#617897"/>
<path transform="translate(1874,189)" d="m0 0h2l8 31 11 37h1v7l-2-3-8-24-7-25-4-16v-4l-115 34-41 12h-5l1-2 42-12 88-26z" fill="#B5C0CC"/>
<path transform="translate(1607,775)" d="m0 0h5l1 1v10h-2v2h-2v7l4 1 6 1 4-2-3 4-9 3-2 4h-14l-12-3-9-7-1-5 5 4 2-4 4 6 11 2v-2l6-4 2-2 2-9z" fill="#7B8CA6"/>
<path transform="translate(237,609)" d="m0 0h8l13 5 1 1-1 10-5 6-9-1-4-1v-2l-4-1-2-4v-9z" fill="#657C9B"/>
<path transform="translate(1589,986)" d="m0 0h8l-1 4-5 2-6 5-4 7-1 4v11l3 8 6 6 8 1 7-4h4v3l-6 5-5 2-7-1-7-4-8-11-2-6v-11l3-8 6-8 5-4z" fill="#607796"/>
<path transform="translate(816,617)" d="m0 0 20 2 34 4-1 17-8 66-9 69-2 23h-5l2-2 4-37 7-51 6-48 3-28v-6l-53-7z" fill="#B5C3D1"/>
<path transform="translate(1809,324)" d="m0 0 2 1 1 21v22h-1l-2-35v-6l-51 4-23 3 1 15 3 98v18h-1l-2-34-3-76v-23l21-3 31-3z" fill="#B5C2D0"/>
<path transform="translate(739,907)" d="m0 0h7l4 2-4 1-5-1-1 13-10 79-10 87-1 11-3 1 2-23 14-116z" fill="#B5C2D0"/>
<path transform="translate(1328,545)" d="m0 0h6l-2 2-8 1-205 8-2-2 4-1 97-4 58-2z" fill="#B8BBC1"/>
<path transform="translate(153,811)" d="m0 0 13 1 10 4 10 9 4 11v10l-4 12-8 9h-8v-2l8-6 1-3h2l2-7v-14l-5-10-5-4-4-2-3-3-9-1h-8z" fill="#485871"/>
<path transform="translate(1597,821)" d="m0 0h10l3 1v2h3l2 3v6l-3 3-2 3-3 1h-11l-6-5-1-2v-7l3-3z" fill="#7F90A9"/>
<path transform="translate(1477,54)" d="m0 0h17l3 51-2 1-77 3-1-52 7-1zm-7 2-30 1-21 2v47l1 1h16l44-2 13-1 2-1-2-44-2-3z" fill="#B5C3D1"/>
<path transform="translate(1610,937)" d="m0 0h8l11 2 3-1 7 2 4 4-1 10h-1l-1-7-1-1-12-1v9l-2-1-1-8h-39l-6 1-1 10h-4v-12l7-4h18l9-2z" fill="#5B7190"/>
<path transform="translate(1628,909)" d="m0 0h1v22l-1 2-9 3h-7l-5-8-6-1-20-1v-3h4v-2l-5-1v-1h30l1 1 1 11 12-1-1-6h-3l1-5h2l1-3h1l1 5 1-1z" fill="#8191A8"/>
<path transform="translate(245,555)" d="m0 0 1 3v10l4 10 5 4 9 4h15l4-1 2-4 7-10 2 2-3 7 1-1h2l-2 4-6 7-7 3h-13l-10-4-9-6-4-4v-17z" fill="#657C9B"/>
<path transform="translate(669,539)" d="m0 0 38 4 43 5 81 9 25 3 1 2h-10l-88-10-84-10-6-1z" fill="#B5C2D0"/>
<path transform="translate(1603,726)" d="m0 0h4l1 2v9l-3 6v4l6 1v2l2 2-12 3-8 1h-12l-5-3 1-3-3-5 2-2 2 4 2 1v2h12l4-4h2l1-10 3-9z" fill="#7C8DA7"/>
<path transform="translate(0,84)" d="m0 0 10 3 25 11 53 23 25 11 27 12 9 3-3 9-14 33h-3l10-23 7-18-8-2-36-16-41-18-58-25-3-1z" fill="#B5C2CF"/>
<path transform="translate(274,444)" d="m0 0h13l5 3 3 4-1 5-1 2h-2l-1 2-1-1v-7l-4-2-9 1-9 6-6 10-3 6h-2l-1 11h-1l-1-5v-9l5-12 8-9h2v-2z" fill="#5B7291"/>
<path transform="translate(181,728)" d="m0 0h13l12 4 7 5-1 2-5-1-3-4-7-1-5-1h-10l-6 3-5 5-2 4-2 7v12l3 9h-2l5 6-4-1-5-6-3-6-1-4 1-13 5-9 7-7z" fill="#47566E"/>
<path transform="translate(1597,986)" d="m0 0 4 2 2 5h-3l2 5v4h3l1 5-1 3h-2l-2 9-2 3h-7l-3-3v-11l7-9 1-8h-5l4-2z" fill="#8091A9"/>
<path transform="translate(1171,153)" d="m0 0h1v15l-5 64-1 7-3 41-2 16h12l43 4 4 2h-13l-44-4-4-1 3-40z" fill="#B5C2D0"/>
<path transform="translate(1044,205)" d="m0 0 1 3-4 48 83 6 21 2 7 1 1-4 1 6-26-2-86-6-4-1 4-52z" fill="#B5C3D1"/>
<path transform="translate(133,773)" d="m0 0h9l2 1v2l8 2 12 5 8 1 9 3 16 6 4 4-1 2-4 1-9-4-6-1v-2l-11-2-4-3-6-2-10-4-1-2-9-1-8-3z" fill="#5E7696"/>
<path transform="translate(543,507)" d="m0 0 1 4-6 12-5 5-8 11h-2l-2 4-3 4h-2l-2 4-16 16-9 6-13 5-4-1 4-2 10-4 13-11 13-13 7-8 10-11 10-15z" fill="#B8BABE"/>
<path transform="translate(149,812)" d="m0 0 3 1-1 1h12l6 3v2l-12-1-9 3-6 5-7 14 1 14 1 4-3-1-3-7v-18l4-8 6-7z" fill="#607898"/>
<path transform="translate(570,317)" d="m0 0h1l-1 17-7 64-1 2h-8l-86-11-2-1 1-3 54 8 30 4 10 1 1-16 7-59z" fill="#B5C3D1"/>
<path transform="translate(211,579)" d="m0 0 3 1-3 11v5l13 3 6 3-1 4-5 5-2 6h-2l-1 12h-2l-1-3v-11l5-10h-6l-6-4-3-5v-8z" fill="#5F7796"/>
<path transform="translate(905,262)" d="m0 0 25 2 69 8 5 1-1 15-5 48-2-1 3-34 2-23v-3l-89-10h-6z" fill="#B6C0CB"/>
<path transform="translate(1811,926)" d="m0 0h2l1 67-1 1h-13v-2l10-1v-62h-31l-58 1 1-2 32-1z" fill="#B7BBC1"/>
<path transform="translate(1173,117)" d="m0 0h11l84 7 71 7-1 3-36-4-75-7-50-4-3-1v11h-1z" fill="#B5C1CD"/>
<path transform="translate(0,810)" d="m0 0 9 2 48 16 1 3-12 36-3 10-6-1-37-13v-2l9 2 32 11 9-28 5-16-17-5-34-12-4-1z" fill="#B5C2D0"/>
<path transform="translate(1610,640)" d="m0 0 3 1-7 4 3 3 15 6-2 1v4l-11-2-20-6-5-2v-3h2v-2l4-1-1 4 5-3 10-2z" fill="#788AA4"/>
<path transform="translate(160,878)" d="m0 0h4l5 3 3 9v13l-4 11-3 5-10 7-5-1 1-3 8-5 1-3h2v-3h2l2-8v-11l-3-9z" fill="#47566E"/>
<path transform="translate(1505,365)" d="m0 0h12v6l-3-3h-28l-44 1 1 9v87h-1l-1-34-1-64 41-1z" fill="#B5C3D1"/>
<path transform="translate(119,862)" d="m0 0h8v1l-13 3-7 6-3 7-3 6v19l4 5-1 2v1l4 5-4-2-6-5-3-8v-16l4-10 9-10 5-3z" fill="#425067"/>
<path transform="translate(118,890)" d="m0 0h1l1 8 5 2 7 3 16 1 4 2v2l-6 3h-10l-15-4v-2l-5-1-3-5 1-3 2 1z" fill="#617A9A"/>
<path transform="translate(1619 1e3)" d="m0 0 6 1 1 4v8l-2 4-4 2-1 9-2-2-1-3-6-1 1-6 4-12z" fill="#617A9A"/>
<path transform="translate(261,533)" d="m0 0h14l6 2v2h-17l-8 2-7 7-2 9h-2l-1 7v15h-2l-3-8v-11l3-9 11-12z" fill="#46556D"/>
<path transform="translate(1107,803)" d="m0 0 2 1v19l55-2 19-1h29v1l-8 1-68 3-29 1-1-2z" fill="#B7BCC2"/>
<path transform="translate(305,437)" d="m0 0 6 1 21 8 6 1-3 2 9-2 3-2-2 4-6 3-12-1-16-5-10 1-2-2 4-4z" fill="#647B9A"/>
<path transform="translate(1627,1042)" d="m0 0 7 1 7 5 1 2v9l-5 6-12 7h-8l-4-3v-6l2-1 3 6 7-1 3-5h5l4-3 1-5-2-4-10-2z" fill="#647B9A"/>
<path transform="translate(1517,388)" d="m0 0h1l4 105 1 32h-18v-1l16-1-4-88z" fill="#B5C3D1"/>
<path transform="translate(1568,653)" d="m0 0 8 1 26 8 4 2v2l-4 1-15 1h-14v-1l10-2h4v-2h-3l-1-2-12-4z" fill="#B5C2CF"/>
<path transform="translate(1573,716)" d="m0 0h4l-1 7-2 10 1 13 3 5h-4l-5-5-2-9v-11z" fill="#677E9C"/>
<path transform="translate(170,770)" d="m0 0 5 5 8 4 5 1h7l10-3v3l5-1-4 4-7 3-9 1-10-2-6-2 1-2-4-3-4-7z" fill="#627998"/>
<path transform="translate(465,386)" d="m0 0 1 2 33 4 55 7v1h-11l-25-3-16-1-6-2h-25l-5-2-2-5z" fill="#E8EAED"/>
<path transform="translate(1582,761)" d="m0 0 3 1 1 3-5 4-3 6v12l1 9-4-2-1-3h-2l-1-6v-10l4-8 5-5z" fill="#647B9A"/>
<path transform="translate(533,527)" d="m0 0 1 2-3 6h-2l-2 5-8 10-8 7-3 1-1 3-5 5h-2v3h6v2l-18 4-4 3-9 2-2 1v-3l16-6 6-4 10-9 10-10 8-10 5-5z" fill="#B5C3D1"/>
<path transform="translate(724,1093)" d="m0 0h12l13 1 5 3v3h-33v-3z" fill="#FDFBFA"/>
<path transform="translate(477,293)" d="m0 0 26 2 55 7 15 2-1 12h-1l-1-9-1-1-83-10h-9z" fill="#B5C3D1"/>
<path transform="translate(150,873)" d="m0 0h3v2l-3 1-1 3v7l5 6 1 2v7l-4 6-1-2h-2v-9l-5-9v-9l3-4z" fill="#47566E"/>
<path transform="translate(1820,525)" d="m0 0h1l3 52-1 3-79 9v-2l59-7 16-2 2-2-1-33z" fill="#B5C3D1"/>
<path transform="translate(1628,909)" d="m0 0h1v22l-1 2-9 3h-7l-4-6v-6l2-2 2 7v2l12-1-1-6h-3l1-5h2l1-3h1l1 5 1-1z" fill="#798CA6"/>
<path transform="translate(1617,693)" d="m0 0h2l1 9h10l2-6h1v7l-2 3-3 1h-11l-14 2-9-1-4-3 5-1 22-1z" fill="#5B7190"/>
<path transform="translate(129,190)" d="m0 0 2 1-38 90h-2l1-5 15-35 11-26 10-23z" fill="#B6C0CB"/>
<path transform="translate(287,415)" d="m0 0h3l-1 6-1 7 8 3 1 8 5 3-1 3-6-1-8-10-4-4v-8l2-6z" fill="#647B9A"/>
<path transform="translate(191,683)" d="m0 0 5 2 2 4-5-1-3 11 3 1v2l-6 1-3 7-1 6h-4v-8l5-12z" fill="#485871"/>
<path transform="translate(267,553)" d="m0 0h7l6 4 2 3v9l-6 5h-5l1-5 2-2v-6l-4-2v-2l-3-1z" fill="#5F7695"/>
<path transform="translate(214,583)" d="m0 0 11 2 16 7 10 5 18 7 5 5-9-3-25-10-22-10-6 1z" fill="#B5C3D1"/>
<path transform="translate(1892,269)" d="m0 0h4v2l-56 17-21 6h-4v-2l41-12z" fill="#B3C2D0"/>
<path transform="translate(34,415)" d="m0 0 1 3-20 46-11 24-3 6-1-4 12-26 20-46z" fill="#B5C3D1"/>
<path transform="translate(0,292)" d="m0 0 8 2 25 10 3 2-2 9-6 16-6-1-21-10-1-2 5 1 22 10 2-9 3-9v-4l-23-10-9-3z" fill="#B5C1CE"/>
<path transform="translate(131,771)" d="m0 0h9l17 6 14 6 1 2-8-1-12-5-8-3v-2h-9l-2-1-2 6-5 9h-2l1-7 5-9z" fill="#47566E"/>
<path transform="translate(213,578)" d="m0 0h8l5 5 12 5 1 3 5 1 13 5 5 2v2l6 1 5 2 1 4-7-4-16-6-10-5-9-4-10-4-9-1z" fill="#637A99"/>
<path transform="translate(213,643)" d="m0 0h8v2l-4 1h-3l-5 4-1 2h-2l1 4-3 4-3 16-3 2-1-1v-15l6-11 8-7z" fill="#414F66"/>
<path transform="translate(1623,618)" d="m0 0h1v15l-9 7-9 3-12 3-3 1 1-4 18-8 10-5v3h2z" fill="#647C9B"/>
<path transform="translate(182,731)" d="m0 0h10l10 2 3 1 3 4h6l2 4-2 1-2-1 1 5-5-4v-3l-5-2-3-2-5-1h-12l-8 4-5 5h-2l2-4 5-5 4-3z" fill="#617998"/>
<path transform="translate(1095,733)" d="m0 0h11l1 2v16l2 53-3-1-2-68h-10z" fill="#B8BABE"/>
<path transform="translate(782,553)" d="m0 0h14l60 7 1 2h-10l-60-7-5-1z" fill="#B5C0CC"/>
<path transform="translate(1754,825)" d="m0 0h1l2 27 1 8-13 2-35 4h-11v-10h1l1 8 21-2 33-4-1-12z" fill="#B5C2D0"/>
<path transform="translate(268,448)" d="m0 0 2 1-6 9-1 5-5 10h-2l-1 11h-1l-1-5v-9l5-12 8-9z" fill="#46556D"/>
<path transform="translate(291,550)" d="m0 0 5 2 3 3v14l-4 10h-3v2l-2-1 3-7-1-17z" fill="#495972"/>
<path transform="translate(1689)" d="m0 0h2l4 15 9-2 15-6 20-7 3 1-11 5-29 11-9 2-1-1-3-15z" fill="#B5C3D1"/>
<path transform="translate(1594,1060)" d="m0 0h21l1 2-2 2v3l-6-2-11 2-5 3-2-1 2-3-3-2z" fill="#798BA5"/>
<path transform="translate(1628,945)" d="m0 0h11l1 1v9l-3 2h-7l-2-1z" fill="#EEEFF1"/>
<path transform="translate(138,822)" d="m0 0 2 1-3 9-1 5-1 9 2 12-3-1-3-7v-18l4-8z" fill="#45546C"/>
<path transform="translate(1620,691)" d="m0 0h9l2 3v8l-1 1h-10l-1-1v-10z" fill="#D5DAE0"/>
<path transform="translate(118,861)" d="m0 0h10l7 6 1 7-1-4h-2l-2 3v-5h-12l-8 4-5 4-1-2 4-5 5-4 7-2h-6z" fill="#607897"/>
<path transform="translate(1610,937)" d="m0 0h8l11 2 3-1 7 2v1l-15 1h-45l4-2h16l9-2z" fill="#788AA4"/>
<path transform="translate(191,1029)" d="m0 0 12 1-5 27-5 29-3 14h-2l2-13 9-50v-5l-8-2z" fill="#B8B9BC"/>
<path transform="translate(750,908)" d="m0 0 19 2 44 6 3 2h-10l-57-8z" fill="#B6C0CA"/>
<path transform="translate(1584,858)" d="m0 0 8 1-2 2-7 2-2 5-1 2v11l-4-1-2 1v-14l1-3 6-3z" fill="#627A99"/>
<path transform="translate(265,559)" d="m0 0 9 1 1 1v6l-3 5-1 2-8-1-3-3 5-1 3-5h-3l-1-4z" fill="#7B8DA6"/>
<path transform="translate(1722,985)" d="m0 0h1l1 8 3 1 36-1h31v1l-39 2h-33z" fill="#B5C1CE"/>
<path transform="translate(432,1042)" d="m0 0h11l2 2-15 1-13 3-14 6-10 9-7 7-2-1 7-9 14-10 17-6z" fill="#DFE3E8"/>
<path transform="translate(233,665)" d="m0 0 5 2v10l-5 5-4-1v-9l3-6z" fill="#637B9A"/>
<path transform="translate(1109)" d="m0 0h1v29l36 3 4 2h-16l-24-2-3-1 1-22z" fill="#B6C0CB"/>
<path transform="translate(138,791)" d="m0 0 6 1 22 8 17 7-3 1-10-3-8-3-13-4-10-4z" fill="#B5C1CE"/>
<path transform="translate(1592,763)" d="m0 0h14l-4 2-4 5-4 12-1-2-1 2h-2l-1-6 2-4z" fill="#788AA4"/>
<path transform="translate(256,659)" d="m0 0h3l-1 9-8 20-2 3h-2l1-5 3-11 2-2-1-3z" fill="#46566E"/>
<path transform="translate(996,272)" d="m0 0 8 1-1 15-5 48-2-1 3-34 2-23v-3l-8-1z" fill="#B5C1CD"/>
<path transform="translate(153,811)" d="m0 0 13 1 10 4 1 3 5 5-1 2-3-3h-3l-6-4-3-3-9-1h-8z" fill="#5E7595"/>
<path transform="translate(250,671)" d="m0 0 3 1-1 3h-2l-1 9-2 4v5l-7 6-3 1h-8l3-2h4v-2l2-2v-2l4-2 4-8 3-10z" fill="#5F7695"/>
<path transform="translate(503,415)" d="m0 0 1 2 4 1 9 6 10 7 7 8 2 5-2 2-5-7v-2h-2l-5-5-7-6-15-9z" fill="#E8EAED"/>
<path transform="translate(816,617)" d="m0 0 20 2 34 4v8h-2l-1-5-53-7z" fill="#B5C2CF"/>
<path transform="translate(1627,1042)" d="m0 0 7 1 7 5 1 2v9l-1 2-3-1-1-9-3-2-8-1z" fill="#637A9A"/>
<path transform="translate(1622,729)" d="m0 0h1v12l-3 6-4 4h-5v-3l2-3h2l3-10 2-3 1 1z" fill="#6B819F"/>
<path transform="translate(832,1039)" d="m0 0h1v8l-6 44-2 4v-12l6-43z" fill="#B5C3D1"/>
<path transform="translate(1743,802)" d="m0 0h11l-1 2-36 3-19 3-2 5h-1v-8z" fill="#B5C3D1"/>
<path transform="translate(1170,551)" d="m0 0 3 1-6 2-48 2-2-2 4-1z" fill="#B7BDC4"/>
<path transform="translate(1622,776)" d="m0 0 2 4 3-3v12l-3 6-5 3h-5l4-4 3-8z" fill="#697F9E"/>
<path transform="translate(1107,803)" d="m0 0 2 1v19h32v1l-5 1-29 1-1-2z" fill="#B8BABE"/>
<path transform="translate(1097,261)" d="m0 0h13l35 3 7 1 1-4 1 6-26-2-30-2z" fill="#B5C3D1"/>
<path transform="translate(1586,764)" d="m0 0h6v8l-2 5v5l1-2 3-1 2-3-1 9-2 4-6-1-1-2 1-9 3-6 1-6h-5z" fill="#B5C3D1"/>
<path transform="translate(222,605)" d="m0 0 3 1 3-1-2 4-3 5-1 3h-2l-1 12h-2l-1-3v-11l5-9z" fill="#45546C"/>
<path transform="translate(542,455)" d="m0 0 2 3 3 9 1 6v16h-1l-1-8-1 20h-1l-1-32-2-11z" fill="#E9EBED"/>
<path transform="translate(1879,211)" d="m0 0h2l9 29 5 17h1v7l-2-3-8-24-7-25z" fill="#B5C2D0"/>
<path transform="translate(397,479)" d="m0 0h1l2 18 6 18 2 5-2 3-3 1-3-1v-2l5-1-4-9-3-9-1-7z" fill="#B6C0CB"/>
<path transform="translate(1597,906)" d="m0 0h22l9 2v12l-2 2-1-1-1-11-3-1-27-1z" fill="#5E7798"/>
<path transform="translate(160,921)" d="m0 0 2 1-6 5-8 3h-15v-1l12-2h-17l-2-2 1-1h18l6-1 1 2 4-1z" fill="#647B9A"/>
<path transform="translate(1048,258)" d="m0 0h23l25 2 1 2h-13l-29-2-7-1z" fill="#B6BFC9"/>
<path transform="translate(1574,908)" d="m0 0h6v11l7 1-2 1 1 3-7-1v-2l-5-1z" fill="#5E7594"/>
<path transform="translate(349,431)" d="m0 0 3 1-1 9-5 5-4 3-7 1-2-2h5v-2l5-1 2-5 3-5z" fill="#45546C"/>
<path transform="translate(1168,297)" d="m0 0h15l33 3 4 2h-13l-39-4z" fill="#B6BEC6"/>
<path transform="translate(1624,1008)" d="m0 0 2 1v8l-2 4-5 3-3-1v-6l4-4h2z" fill="#788AA4"/>
<path transform="translate(1573,888)" d="m0 0h1v8l4 1 1 1v8l-1 2h-4v12h-1z" fill="#B5C3D1"/>
<path transform="translate(1573,871)" d="m0 0h1l1 7 4 2 4 3v3h-2l-1 9h-1l-1-6-2 2-3-3z" fill="#7B8DA6"/>
<path transform="translate(1390,778)" d="m0 0h2l1 37h-6v-2h3z" fill="#B8B9BC"/>
<path transform="translate(1561,655)" d="m0 0h3l3 3 2 9 3 2-4 1-1-2-3-1-1 8h-1z" fill="#ABB9C9"/>
<path transform="translate(621,788)" d="m0 0 24 2 17 2 2 2h-11l-32-4z" fill="#B6BEC8"/>
<path transform="translate(1892,269)" d="m0 0h4v2l-36 11h-4v-2z" fill="#B2C0CF"/>
<path transform="translate(211,579)" d="m0 0 3 1-3 11v9l-4-1-1-3v-8z" fill="#45546C"/>
<path transform="translate(1628,909)" d="m0 0h1v22l-1 2-3-1h2l-1-6-2 3-1-5h-3l1-5h2l1-3h1l1 5 1-1z" fill="#8596AC"/>
<path transform="translate(127,785)" d="m0 0 2 3 10 4v2l4 2-6-1h-3l-2 1-9-6 1-4v2z" fill="#637A9A"/>
<path transform="translate(1561,615)" d="m0 0 3 3 1 14h-5l-1-2-1-13h3z" fill="#627A9A"/>
<path transform="translate(101,909)" d="m0 0 6 2 4 4 9 4v1h-5v-2l-4 1 2 3-6-2-8-8 1-2 7 6z" fill="#6D83A0"/>
<path transform="translate(194,733)" d="m0 0h10l4 5h6l2 4-2 1-2-1 1 5-5-4v-3l-5-2-3-2-6-2z" fill="#657C9B"/>
<path transform="translate(187,751)" d="m0 0 5 2 3 3v4h-7l-3-1-1-6z" fill="#B5C3D1"/>
<path transform="translate(236,590)" d="m0 0 6 1 20 8v2l6 1 5 2 1 4-7-4-16-6-10-5-5-2z" fill="#788AA4"/>
<path transform="translate(617,1051)" d="m0 0h15l11 1 1 2h-13l-12-1-1 9h-1z" fill="#B5C2CF"/>
<path transform="translate(261,533)" d="m0 0h14l6 2v2h-17l-3 1-3-2v-2z" fill="#485870"/>
<path transform="translate(197,798)" d="m0 0 5 1v7l-5 8h-5v-2l4-4 1-8z" fill="#435169"/>
<path transform="translate(1561,644)" d="m0 0 6 1v12l-3-1-2 1-1-2z" fill="#647C9B"/>
<path transform="translate(159,784)" d="m0 0 10 3 15 5 10 5-1 2-6-3-6-1v-2l-11-2-4-3-6-2z" fill="#788AA4"/>
<path transform="translate(287,415)" d="m0 0h3l-1 6-1 7-2 3-3-1v-8l2-6z" fill="#47576F"/>
<path transform="translate(218,579)" d="m0 0h7l14 6 4 2v2l-7-1-11-5-7-3z" fill="#47576F"/>
<path transform="translate(144,779)" d="m0 0 10 3 6 3 9 4 1 2-5-1-20-8-2-2z" fill="#B5C3D1"/>
<path transform="translate(782,553)" d="m0 0h14l19 2 1 2h-12l-22-3z" fill="#B6BFC9"/>
<path transform="translate(543,507)" d="m0 0 1 4-6 12-4 4-1-5z" fill="#B6BEC7"/>
<path transform="translate(12,466)" d="m0 0 1 3-12 25-1-4 10-22z" fill="#B4C1CE"/>
<path transform="translate(786,913)" d="m0 0 13 1 17 3v1h-10l-22-3z" fill="#B5C1CD"/>
<path transform="translate(1617,706)" d="m0 0 8 1v1l-12 1 1 4 5 6-4-2-10-7-1-2z" fill="#788AA4"/>
<path transform="translate(462,573)" d="m0 0 14 2-3 2-1 8-2 2-1-8-4-1-1-3h-2z" fill="#B6BEC7"/>
<path transform="translate(444,565)" d="m0 0 4 2 9 6 12 6v1h-6l-9-5-10-8z" fill="#E8EAED"/>
<path transform="translate(258,537)" d="m0 0 4 1v2l-8 5-5 6-2 2 1-7 8-8z" fill="#617999"/>
<path transform="translate(304,439)" d="m0 0 10 4 1 3h-9l-5 1-2-2 4-4z" fill="#7789A3"/>
<path transform="translate(153,811)" d="m0 0 13 1 4 1v4l-9-2h-12z" fill="#48566E"/>
<path transform="translate(1593,627)" d="m0 0h10v2l-6 4-4-1-2-2-11-1v-1z" fill="#AEBCCB"/>
<path transform="translate(220,599)" d="m0 0 5 1 5 2-1 4-6 2 1-2-4-1-1-5z" fill="#788CA6"/>
<path transform="translate(331,482)" d="m0 0h1v9l-3 6h-3l-1-5 2-5 2-2z" fill="#46556D"/>
<path transform="translate(1622,883)" d="m0 0 5 1 2 1v11h-4l-1-9z" fill="#5D718E"/>
<path transform="translate(233,719)" d="m0 0h3l-1 8-3 5h-7l3-2z" fill="#47556D"/>
<path transform="translate(317,440)" d="m0 0 8 1 11 3 7-1v2l-5 2-9-1-12-5z" fill="#CDD4DD"/>
<path transform="translate(1424,56)" d="m0 0h23v1l-18 2h-11l-1-2z" fill="#B5C2CF"/>
<path transform="translate(133,773)" d="m0 0h9l2 1v2l3 1 1 3-8-1-8-3z" fill="#667D9C"/>
<path transform="translate(827,1068)" d="m0 0h2v10l-3 17h-1v-12z" fill="#B7BCC4"/>
<path transform="translate(1630,941)" d="m0 0h10l3 3-1 10h-1l-1-7-2-2-9-1-1-2z" fill="#596F8D"/>
<path transform="translate(1582,838)" d="m0 0 5 5 2 4 5 1v2h-6-3l-3-8z" fill="#8292A9"/>
<path transform="translate(132,772)" d="m0 0 2 1-8 15h-2l1-7 3-5z" fill="#3E4B62"/>
<path transform="translate(1620,693)" d="m0 0 5 1 3 6v2h-8z" fill="#FCFAF9"/>
<path transform="translate(1559,630)" d="m0 0 1 3h4l1 7-3 1-1 11h-1z" fill="#AAB9C8"/>
<path transform="translate(271,625)" d="m0 0h3l-1 7-3 6-4 4-1-4 4-2 1-9z" fill="#435269"/>
<path transform="translate(127,926)" d="m0 0h20l1 2-7 1h-14z" fill="#425067"/>
<path transform="translate(905,262)" d="m0 0 25 2 4 2h-12l-16-1z" fill="#B6BEC6"/>
<path transform="translate(133,793)" d="m0 0 12 4 4 3v2l-6-1-9-4z" fill="#485871"/>
<path transform="translate(253,673)" d="m0 0h1l-1 8-5 10h-2l1-5 3-11z" fill="#44536B"/>
<path transform="translate(244,616)" d="m0 0 8 5v6l-5-1-3-6z" fill="#97A7BA"/>
<path transform="translate(1620,614)" d="m0 0h2l1 3v14l-1 2h-2z" fill="#48576E"/>
<path transform="translate(1040,243)" d="m0 0h1v13l13 1v1l-12 1-4-1 1-14z" fill="#B5C2CF"/>
<path transform="translate(1107,803)" d="m0 0 2 1v19l3 1-5 2-1-2z" fill="#B4BBC4"/>
<path transform="translate(34,415)" d="m0 0 1 3-10 23-2-2 9-21z" fill="#B5C2CF"/>
<path transform="translate(132,869)" d="m0 0 3 1v8l-1 2-8 1 5-8z" fill="#425067"/>
<path transform="translate(183,713)" d="m0 0 10 4-3 3-5 1-5-5h3z" fill="#657C9B"/>
<path transform="translate(278,609)" d="m0 0h1v8l-2 6h-2l-2-3 1-5 2-4h2z" fill="#45546B"/>
<path transform="translate(265,559)" d="m0 0h6l3 4-2 4-7-3-1-4z" fill="#B5C1CE"/>
<path transform="translate(1599,1007)" d="m0 0h2l2 3-2 9h-4l1-9h2z" fill="#677E9C"/>
<path transform="translate(143,796)" d="m0 0 6 1 15 5v1h-7l-6-1h-3l-1-3z" fill="#6B809E"/>
<path transform="translate(150,873)" d="m0 0h3v2l-3 1-2 6-5 1 1-7 2-2z" fill="#415067"/>
<path transform="translate(1822,566)" d="m0 0h1l1 13-1 1-22 2 2-2 16-2 3-1z" fill="#B6C0CA"/>
<path transform="translate(469,602)" d="m0 0 2 4v6h-1l-1 14h-2v-11l1-12z" fill="#E8EAED"/>
<path transform="translate(308,481)" d="m0 0 2 1-1 6-2 2h-3l-2-5 3-3z" fill="#788AA4"/>
<path transform="translate(122,880)" d="m0 0h11l-5 5-7 2-1-4 4-1z" fill="#607999"/>
<path transform="translate(156,837)" d="m0 0 5 1 3 4-1 3-5-1-2-2z" fill="#B5C2CF"/>
<path transform="translate(407,532)" d="m0 0 3 1 7 8v2h2l2 6-7-6-2-5h-2l-3-4z" fill="#E8EAED"/>
<path transform="translate(1621,859)" d="m0 0 8 1v10l-2 2-1-1-1-10z" fill="#5A708E"/>
<path transform="translate(170,791)" d="m0 0 9 1 2 1v2l9 1 3 3-9-2-14-5z" fill="#B5C3D1"/>
<path transform="translate(1597,986)" d="m0 0 4 2 2 5h-3l-1 4h-1l-1-5-5-1 4-2z" fill="#7688A3"/>
<path transform="translate(156,778)" d="m0 0 6 1 10 5-4 1-12-4z" fill="#47566D"/>
<path transform="translate(225,694)" d="m0 0h14l-1 2h-2v2l-9 1z" fill="#425067"/>
<path transform="translate(182,731)" d="m0 0h10l5 1-3 2h-14v-2z" fill="#607796"/>
<path transform="translate(1638,1050)" d="m0 0h4v9l-1 2-3-1z" fill="#4B5B74"/>
<path transform="translate(216,644)" d="m0 0 1 4-8 6h-3v-2h2l2-4z" fill="#5B7290"/>
<path transform="translate(119,867)" d="m0 0h10l2 1v7l-2 2-1-7-12-1z" fill="#CFD7DF"/>
<path transform="translate(297,500)" d="m0 0h1v5l11 2-2 2h-9l-2-1z" fill="#CED6DF"/>
<path transform="translate(655,1095)" d="m0 0h2v2l6-1 3 1v3h-6v-1l-13-2v-1z" fill="#CBD3DB"/>
<path transform="translate(397,479)" d="m0 0h1l2 18 1 5-2 3-2-10z" fill="#B5C3D1"/>
<path transform="translate(1874,189)" d="m0 0h2l-1 3-17 5h-2v-2z" fill="#B4BFCB"/>
<path transform="translate(138,170)" d="m0 0 1 3-7 16h-3l7-17z" fill="#B5C1CE"/>
<path transform="translate(340,426)" d="m0 0 7 2 1 1v7h-1l-1-6h-6l-4 2 2-5z" fill="#C6D0DA"/>
<path transform="translate(1326,354)" d="m0 0 2 2-1 1h-15l-2-2z" fill="#B5C3D1"/>
<path transform="translate(594,1089)" d="m0 0h6l5 2v1l-11 1-5-1v-1l5-1z" fill="#E8EAED"/>
<path transform="translate(127,924)" d="m0 0h21l-3 3h-17l-2-2z" fill="#607796"/>
<path transform="translate(1578,886)" d="m0 0h1l1 9 2 2-4-1-2-2-2 1 1-7 2 1z" fill="#5F7898"/>
<path transform="translate(144,882)" d="m0 0h4l1 5-1 2-4 1-1-7z" fill="#5F7898"/>
<path transform="translate(250,671)" d="m0 0 3 1-1 3h-2l-1 9-2 2-1-4 3-10z" fill="#617999"/>
<path transform="translate(860,623)" d="m0 0h10v8h-2l-1-5-7-1z" fill="#B3C1CF"/>
<path transform="translate(946,561)" d="m0 0h1v12l-9-1v-1h7v-9z" fill="#B5C1CD"/>
<path transform="translate(1606,823)" d="m0 0 6 1-1 4-3 1-3-1z" fill="#5E7798"/>
<path transform="translate(225,585)" d="m0 0h7l7 4v1h-6l-8-4z" fill="#687E9C"/>
<path transform="translate(1322,130)" d="m0 0 17 1-1 3-16-2z" fill="#B5C0CC"/>
<path transform="translate(1609,922)" d="m0 0 2 1 2 8 1 2-5-1-1-6z" fill="#627A99"/>
<path transform="translate(377,1081)" d="m0 0 1 4-5 12-1-4 3-9z" fill="#D3DAE1"/>
<path transform="translate(131,771)" d="m0 0h9l3 2-2 1h-6-4l-2 1z" fill="#495A73"/>
<path transform="translate(1152,261)" d="m0 0 2 4v2l-15-1v-2l13 1z" fill="#B5C2CF"/>
<path transform="translate(1636 1e3)" d="m0 0 3 1 1 10-2 3-2-8z" fill="#425067"/>
<path transform="translate(251,668)" d="m0 0v3l-3 8-2-3v-6z" fill="#AAB9C9"/>
<path transform="translate(442,571)" d="m0 0 4 1 10 7-3 1-9-6z" fill="#E8EAED"/>
<path transform="translate(746,523)" d="m0 0 13 1v1l-6 2-7-1z" fill="#FCFAF9"/>
<path transform="translate(262,489)" d="m0 0 5 5 5 2v2l-5-1-5-3-1-3z" fill="#7E8FA7"/>
<path transform="translate(1591,824)" d="m0 0 1 2 1 9h-3l-1-2v-7z" fill="#B2C0CF"/>
<path transform="translate(204,732)" d="m0 0 5 2 4 3-1 2-5-1-3-4z" fill="#495973"/>
<path transform="translate(295,439)" d="m0 0 6 2v4l-5-1z" fill="#556985"/>
<path transform="translate(337,421)" d="m0 0h7l3 2h-9v2l-6-1 2-2z" fill="#788AA4"/>
<path transform="translate(1731)" d="m0 0h8l-4 2-9 3 2-4z" fill="#E9EBED"/>
<path transform="translate(1699)" d="m0 0h7l-1 4-5 1z" fill="#E8EAED"/>
<path transform="translate(1622,655)" d="m0 0 4 1 1 1v5h-3l-2-2z" fill="#627A9A"/>
<path transform="translate(272,619)" d="m0 0 4 4-1 5-1-3h-4z" fill="#5C7494"/>
<path transform="translate(1853,281)" d="m0 0h3v2l-9 3-4-1 6-3z" fill="#B5C3D1"/>
<path transform="translate(827,1068)" d="m0 0h2v10l-3 2z" fill="#B6BEC7"/>
<path transform="translate(148,820)" d="m0 0 2 1-10 10v-3l5-6z" fill="#D4DAE1"/>
<path transform="translate(151,801)" d="m0 0 9 2-1 2-9-1z" fill="#47566E"/>
<path transform="translate(1605,776)" d="m0 0h1v8l-3 8-2 1 2-9z" fill="#B8C6D3"/>
<path transform="translate(1095,733)" d="m0 0h11l1 2-2 2v-2h-11z" fill="#ADB1B9"/>
<path transform="translate(1566,694)" d="m0 0h3v13l-2-1-1-5z" fill="#788AA4"/>
<path transform="translate(400,502)" d="m0 0 2 1 3 11h-3l-2-6z" fill="#B6BEC8"/>
<path transform="translate(312,416)" d="m0 0 3 3-3 4 5 2 2 2-6-1-2-2z" fill=""/>
</svg>
