<?xml version="1.0" standalone="no"?>
<!DOCTYPE svg PUBLIC "-//W3C//DTD SVG 20010904//EN"
 "http://www.w3.org/TR/2001/REC-SVG-20010904/DTD/svg10.dtd">
<svg version="1.0" xmlns="http://www.w3.org/2000/svg"
 width="300.000000pt" height="126.000000pt" viewBox="0 0 300.000000 126.000000"
 preserveAspectRatio="xMidYMid meet">
<metadata>
Created by potrace 1.10, written by Peter Selinger 2001-2011
</metadata>
<g transform="translate(0.000000,126.000000) scale(0.100000,-0.100000)"
fill="#000000" stroke="none">
<path d="M210 1085 c-40 -96 -77 -175 -82 -175 -5 0 -25 7 -45 15 -20 8 -38
14 -40 12 -2 -2 19 -13 46 -25 l50 -20 76 179 c42 99 75 182 73 184 -2 3 -37
-74 -78 -170z"/>
<path d="M686 1252 c-3 -4 -82 -199 -177 -433 -124 -306 -188 -478 -229 -619
-32 -107 -56 -197 -54 -199 8 -9 16 11 45 115 59 210 81 280 118 369 21 50 55
133 75 185 21 52 53 131 71 175 19 44 47 114 64 155 16 41 46 115 66 163 20
49 35 91 32 93 -3 3 -7 1 -11 -4z"/>
<path d="M871 1238 c-5 -13 -23 -57 -40 -100 -17 -42 -31 -82 -31 -88 0 -7 -7
-5 -16 5 -9 9 -22 14 -30 11 -7 -3 -18 2 -24 10 -7 8 -23 14 -36 14 -27 0 -51
-34 -33 -46 7 -4 0 -12 -19 -19 -42 -18 -54 -71 -23 -96 12 -10 28 -16 35 -13
7 3 16 -2 19 -10 9 -22 33 -20 59 6 12 12 19 15 15 7 -3 -8 -17 -41 -31 -74
-20 -46 -26 -54 -26 -33 0 28 -31 58 -61 58 -27 0 -52 -36 -47 -70 5 -34 5
-34 -24 -19 -18 9 -24 8 -35 -7 -11 -14 -11 -20 0 -33 20 -24 18 -60 -4 -82
-10 -10 -19 -26 -19 -34 0 -9 -7 -27 -16 -40 -9 -14 -14 -34 -11 -46 3 -13 0
-22 -10 -26 -22 -9 -35 -51 -23 -74 10 -17 9 -18 -14 -8 -14 7 -32 9 -40 6
-25 -10 -18 -38 12 -49 l28 -11 -24 -24 c-17 -17 -23 -32 -19 -49 3 -18 0 -24
-14 -24 -43 0 -66 -71 -33 -104 37 -38 110 -32 120 10 4 14 8 23 11 20 2 -2
-9 -45 -26 -94 -32 -91 -38 -124 -22 -107 13 14 74 235 67 243 -3 3 -6 -2 -6
-11 0 -22 -16 -22 -24 -1 -8 21 -4 25 23 27 16 1 20 6 15 20 -4 13 -2 17 5 13
16 -11 13 13 -4 31 -14 13 -13 17 7 33 19 15 20 20 9 34 -11 14 -11 16 2 16 9
0 21 8 26 18 17 28 12 7 -9 -44 -11 -26 -19 -49 -17 -51 2 -2 13 19 24 45 20
47 21 94 3 117 -5 6 1 10 16 10 15 0 22 -5 19 -12 -18 -44 -11 -39 11 7 14 30
27 76 29 101 2 25 13 61 25 80 18 29 21 30 16 9 -4 -14 2 -8 13 15 22 44 27
72 8 39 -10 -18 -14 -20 -25 -8 -10 11 -8 16 10 26 13 7 26 11 29 11 4 -1 28
50 54 115 26 64 71 174 100 245 29 70 49 127 44 127 -5 0 -13 -10 -18 -22z
m-115 -191 c12 4 15 2 12 -8 -3 -8 -15 -13 -29 -11 -13 1 -31 3 -39 4 -15 1
-30 16 -30 30 0 15 36 12 52 -4 10 -10 24 -15 34 -11z m20 -60 l-11 -27 -16
21 c-8 11 -28 22 -42 22 -51 3 -27 15 26 14 l53 -2 -10 -28z m-106 14 c0 -5
-7 -11 -15 -15 -8 -3 -15 -13 -15 -22 0 -15 4 -14 24 5 28 26 69 25 74 -2 4
-22 -25 -57 -46 -57 -12 0 -10 5 6 20 12 12 22 25 22 30 0 16 -19 11 -41 -11
-11 -11 -28 -19 -37 -17 -21 4 -28 44 -12 64 14 15 40 19 40 5z m0 -171 c8
-14 8 -26 0 -40 -19 -35 -80 -20 -80 20 0 40 61 55 80 20z m-76 -80 c51 -22
50 -19 36 -54 -18 -48 -90 -24 -77 25 3 12 0 22 -9 26 -16 6 -19 23 -5 23 5 0
30 -9 55 -20z m-15 -101 c23 -8 29 -15 22 -22 -6 -6 -11 -19 -11 -29 0 -11 -7
-18 -20 -18 -20 0 -24 9 -20 44 1 11 -3 15 -9 12 -6 -4 -11 -14 -11 -22 0 -8
-4 -14 -10 -14 -13 0 -13 16 0 41 12 22 16 23 59 8z m-64 -80 c-4 -5 5 -14 19
-21 14 -6 26 -17 26 -24 0 -10 -8 -10 -37 3 -21 8 -39 16 -41 18 -8 7 20 45
29 40 5 -4 7 -11 4 -16z m74 -2 c17 11 18 10 8 -16 -10 -27 -11 -27 -29 -9
-10 10 -22 18 -28 18 -5 0 -10 5 -10 10 0 6 8 5 20 -2 15 -10 24 -10 39 -1z
m-59 -88 c9 -16 8 -25 -6 -40 -20 -22 -34 -24 -59 -6 -13 10 -16 21 -11 40 5
22 12 27 36 27 19 0 33 -7 40 -21z m-32 -89 c1 0 2 -5 2 -11 0 -13 -28 -7 -83
16 -58 24 -34 38 26 15 29 -11 53 -20 55 -20z m-22 -67 c9 -34 -16 -58 -50
-49 -21 5 -26 13 -26 36 0 51 64 62 76 13z m-112 -88 c-16 -11 -16 -15 -4 -29
7 -10 24 -16 39 -14 22 2 26 8 24 31 -2 35 15 35 23 0 9 -33 -27 -67 -60 -57
-55 17 -72 62 -34 89 28 19 39 0 12 -20z m46 0 c0 -36 -5 -41 -29 -26 -12 8
-12 12 2 26 10 9 15 21 12 26 -4 5 -1 9 4 9 6 0 11 -16 11 -35z"/>
<path d="M615 820 c-4 -7 -3 -16 3 -22 14 -14 45 -2 40 15 -6 16 -34 21 -43 7z"/>
<path d="M575 721 c-8 -15 3 -31 21 -31 9 0 14 7 12 17 -4 20 -24 28 -33 14z"/>
<path d="M470 466 c0 -15 24 -28 34 -19 13 14 5 33 -14 33 -11 0 -20 -6 -20
-14z"/>
<path d="M422 313 c4 -21 33 -25 33 -3 0 8 -8 16 -18 18 -14 3 -18 -1 -15 -15z"/>
<path d="M996 1223 c-3 -21 -6 -52 -6 -69 0 -30 2 -32 48 -38 26 -4 64 -9 84
-12 l37 -6 6 45 c4 25 5 53 2 63 -3 11 -5 3 -6 -16 -2 -66 -11 -82 -40 -76
-14 3 -48 8 -75 11 l-49 7 7 64 c7 70 2 87 -8 27z"/>
<path d="M2904 1228 c6 -32 20 -206 33 -395 3 -51 10 -93 15 -93 11 0 10 13
-12 265 -11 121 -20 228 -20 238 0 9 -5 17 -10 17 -7 0 -9 -13 -6 -32z"/>
<path d="M1266 1175 c-3 -38 -9 -92 -13 -120 -3 -27 -3 -48 0 -45 8 7 30 206
25 222 -3 7 -8 -18 -12 -57z"/>
<path d="M1641 1216 c2 -2 40 -6 84 -9 60 -4 69 -3 35 3 -46 9 -127 13 -119 6z"/>
<path d="M2405 1180 l-120 -5 -1 -58 -1 -57 4 55 4 55 114 0 c110 0 114 -1
118 -22 3 -17 5 -14 6 10 0 17 0 31 -1 30 -2 -1 -57 -4 -123 -8z"/>
<path d="M1875 1090 c-4 -45 -5 -83 -2 -86 2 -3 8 32 11 77 4 44 5 83 3 85 -3
3 -8 -31 -12 -76z"/>
<path d="M2530 1011 l0 -90 -42 -4 -43 -4 48 -1 47 -2 0 95 c0 52 -2 95 -5 95
-3 0 -5 -40 -5 -89z"/>
<path d="M2742 988 c-2 -107 0 -118 16 -118 12 0 13 3 5 8 -8 5 -13 45 -16
117 l-3 110 -2 -117z"/>
<path d="M2870 996 l0 -105 -27 -4 c-26 -4 -26 -4 5 -6 l32 -1 0 110 c0 61 -2
110 -5 110 -3 0 -5 -47 -5 -104z"/>
<path d="M948 1044 c-39 -21 -61 -68 -53 -111 15 -82 116 -113 176 -54 52 53
34 147 -33 170 -40 14 -57 13 -90 -5z m62 -39 c0 -8 7 -15 15 -15 8 0 15 -7
15 -15 0 -8 -7 -15 -15 -15 -11 0 -15 -11 -15 -41 0 -28 -4 -39 -12 -36 -8 2
-13 19 -12 41 1 29 -2 36 -17 36 -11 0 -19 7 -19 15 0 8 9 15 20 15 13 0 18 5
14 15 -4 9 0 15 10 15 9 0 16 -7 16 -15z"/>
<path d="M2040 975 l0 -85 48 2 47 1 -42 4 -43 4 0 74 0 74 83 4 82 3 -87 2
-88 2 0 -85z"/>
<path d="M1190 930 c0 -27 5 -50 10 -50 6 0 10 10 10 23 l1 22 20 -24 c11 -13
22 -21 26 -17 4 3 2 11 -4 17 -8 8 -9 16 -1 29 17 27 3 50 -32 50 -29 0 -30
-1 -30 -50z m48 17 c2 -12 -3 -17 -17 -17 -12 0 -21 6 -21 13 0 31 32 34 38 4z"/>
<path d="M1278 956 c-17 -39 3 -78 39 -74 18 2 29 10 32 23 3 17 1 18 -13 6
-32 -27 -64 17 -34 47 9 9 16 8 31 -6 18 -16 19 -16 16 3 -3 13 -14 21 -32 23
-21 3 -29 -2 -39 -22z"/>
<path d="M1382 968 c-28 -28 -8 -88 29 -88 20 0 45 28 34 38 -4 4 -10 1 -12
-5 -3 -7 -13 -13 -24 -13 -14 0 -19 7 -19 30 0 23 4 30 20 30 11 0 20 -5 20
-11 0 -5 5 -7 10 -4 8 5 7 11 -1 21 -14 17 -41 18 -57 2z"/>
<path d="M1472 968 c-17 -17 -15 -63 2 -78 23 -18 61 -8 64 18 3 17 -1 22 -20
21 -13 0 -17 -3 -10 -6 19 -8 14 -23 -8 -23 -15 0 -20 7 -20 29 0 31 21 46 39
28 13 -13 26 -3 16 12 -8 15 -48 14 -63 -1z"/>
<path d="M1071 849 c-32 -35 -61 -59 -74 -59 -11 0 -43 23 -73 53 -48 48 -74
61 -74 36 0 -6 5 -7 10 -4 6 4 31 -16 56 -44 25 -28 52 -51 60 -51 17 0 20
-65 3 -75 -6 -4 -39 -4 -74 0 l-64 6 4 67 4 67 -10 -69 c-5 -38 -8 -71 -6 -72
2 -2 36 -7 76 -10 80 -8 91 -2 91 48 0 18 8 31 23 39 28 14 106 100 107 117 0
17 1 18 -59 -49z"/>
<path d="M1851 868 c0 -27 -7 -53 -17 -62 -14 -14 -14 -16 0 -16 17 0 30 51
23 96 -3 20 -4 15 -6 -18z"/>
<path d="M2223 903 c31 -2 83 -2 115 0 31 2 5 3 -58 3 -63 0 -89 -1 -57 -3z"/>
<path d="M36 827 c23 -12 39 -28 37 -34 -7 -18 4 -16 11 2 4 10 -7 21 -34 35
-53 27 -65 25 -14 -3z"/>
<path d="M2390 840 c-85 -4 -195 -8 -244 -9 l-89 -1 6 -127 c4 -71 7 -145 7
-165 0 -35 2 -38 30 -38 l30 0 0 -81 0 -81 223 6 c122 4 240 9 262 12 l40 4
-3 98 c-2 53 -7 162 -10 242 l-7 145 -45 1 c-25 0 -115 -2 -200 -6z m245 -231
c6 -183 5 -233 -5 -239 -13 -8 -170 -14 -385 -15 l-100 0 -3 78 -3 77 -28 0
-28 0 -8 151 c-4 83 -5 152 -3 154 1 1 107 7 235 11 127 5 251 10 276 12 l45
3 7 -232z"/>
<path d="M1600 820 c30 -5 71 -8 90 -8 28 1 25 2 -15 8 -27 5 -68 8 -90 8 -35
-1 -33 -2 15 -8z"/>
<path d="M29 695 c-14 -30 -22 -55 -19 -55 8 0 52 101 47 106 -2 2 -14 -21
-28 -51z"/>
<path d="M1295 669 c-4 -44 -5 -82 -2 -85 2 -3 7 31 11 75 l7 80 32 4 c32 4
32 4 -4 5 l-37 2 -7 -81z"/>
<path d="M2954 638 c4 -51 9 -111 11 -133 2 -22 4 -59 4 -82 0 -24 5 -43 11
-43 7 0 6 -7 -2 -19 -9 -15 -9 -26 0 -45 7 -16 8 -28 2 -31 -13 -8 -10 -113 4
-124 13 -11 14 212 2 241 -4 9 -3 26 4 37 8 16 7 26 -5 45 -14 22 -14 25 1 40
15 16 15 18 -2 31 -18 13 -18 14 -1 20 21 9 23 25 2 25 -20 0 -19 17 2 28 14
8 13 11 -7 17 l-23 7 24 19 24 19 -22 0 c-13 0 -23 5 -23 10 0 6 9 10 20 10
11 0 20 5 20 10 0 6 -12 10 -26 10 l-27 0 7 -92z"/>
<path d="M1622 707 l77 -9 4 -37 4 -36 1 41 2 41 -61 7 c-94 9 -115 5 -27 -7z"/>
<path d="M78 531 c10 -6 6 -26 -22 -92 -22 -52 -40 -83 -48 -81 -10 3 -10 1
-1 -9 7 -7 14 -11 17 -8 2 2 20 44 40 92 35 85 38 107 13 107 -8 0 -8 -3 1 -9z"/>
<path d="M1270 449 l-5 -47 108 -12 c59 -7 110 -11 113 -8 2 3 -26 8 -63 12
-144 15 -142 13 -145 60 l-3 41 -5 -46z"/>
<path d="M1670 426 c0 -19 -6 -26 -27 -29 -26 -4 -26 -4 5 -6 29 -1 32 2 32
29 0 17 -2 30 -5 30 -3 0 -5 -11 -5 -24z"/>
<path d="M1580 395 c0 -11 -12 -15 -42 -17 l-43 -1 39 -4 c29 -3 43 1 58 16
15 17 16 21 3 21 -8 0 -15 -7 -15 -15z"/>
<path d="M131 329 c-13 -44 -6 -59 29 -59 10 1 9 4 -5 12 -11 6 -21 12 -23 13
-1 1 3 16 9 34 12 33 14 33 77 10 25 -10 26 -16 12 -54 -8 -21 -15 -25 -33
-20 -17 5 -19 4 -7 -4 8 -6 20 -11 27 -11 11 0 33 50 33 76 0 10 -77 44 -100
44 -4 0 -12 -19 -19 -41z"/>
<path d="M974 266 c-3 -7 -3 -35 -1 -62 l3 -49 2 57 2 57 48 4 47 3 -48 2
c-33 1 -49 -2 -53 -12z"/>
<path d="M1344 241 l50 -6 -1 -60 -1 -60 7 60 c4 33 6 63 4 68 -2 4 -28 6 -56
5 l-52 -1 49 -6z"/>
<path d="M1477 193 c-2 -4 -7 -44 -10 -88 l-5 -80 12 85 c13 82 14 101 3 83z"/>
<path d="M1619 173 c37 -4 40 -7 44 -39 4 -34 4 -34 3 3 -1 38 -1 38 -44 39
l-42 1 39 -4z"/>
<path d="M2974 125 c-6 -15 2 -35 16 -35 4 0 7 11 6 25 -1 28 -13 33 -22 10z"/>
<path d="M2981 65 c1 -11 -2 -30 -6 -42 -4 -14 -3 -23 3 -23 15 0 24 48 13 68
-9 15 -10 15 -10 -3z"/>
</g>
</svg>
